HIERARCHY
ROOT hip
{
  OFFSET 0 0 0
  CHANNELS 6 Xposition Yposition Zposition Zrotation Yrotation Xrotation
  JOINT abdomen
  {
    OFFSET 0 20.6881 -0.73152
    CHANNELS 3 Zrotation Xrotation Yrotation
    JOINT chest
    {
      OFFSET 0 11.7043 -0.48768
      CHANNELS 3 Zrotation Xrotation Yrotation
      JOINT neck
      {
        OFFSET 0 22.1894 -2.19456
        CHANNELS 3 Zrotation Xrotation Yrotation
        JOINT head
        {
          OFFSET -0.24384 7.07133 1.2192
          CHANNELS 3 Zrotation Xrotation Yrotation
          JOINT leftEye
          {
            OFFSET 4.14528 8.04674 8.04672
            CHANNELS 3 Zrotation Xrotation Yrotation
            End Site
            {
              OFFSET 1 0 0
            }
          }
          JOINT rightEye
          {
            OFFSET -3.6576 8.04674 8.04672
            CHANNELS 3 Zrotation Xrotation Yrotation
            End Site
            {
              OFFSET 1 0 0
            }
          }
        }
      }
      JOINT rCollar
      {
        OFFSET -2.68224 19.2634 -4.8768
        CHANNELS 3 Zrotation Xrotation Yrotation
        JOINT rShldr
        {
          OFFSET -8.77824 -1.95073 1.46304
          CHANNELS 3 Zrotation Xrotation Yrotation
          JOINT rForeArm
          {
            OFFSET -28.1742 -1.7115 0.48768
            CHANNELS 3 Zrotation Xrotation Yrotation
            JOINT rHand
            {
              OFFSET -22.5879 0.773209 7.07136
              CHANNELS 3 Zrotation Xrotation Yrotation
              JOINT rThumb1
              {
                OFFSET -1.2192 -0.487915 3.41376
                CHANNELS 3 Zrotation Xrotation Yrotation
                JOINT rThumb2
                {
                  OFFSET -3.37035 -0.52449 3.41376
                  CHANNELS 3 Zrotation Xrotation Yrotation
                  End Site
                  {
                    OFFSET -1.78271 -1.18214 1.43049
                  }
                }
              }
              JOINT rIndex1
              {
                OFFSET -7.75947 0.938293 5.60832
                CHANNELS 3 Zrotation Xrotation Yrotation
                JOINT rIndex2
                {
                  OFFSET -2.54057 -0.884171 1.56538
                  CHANNELS 3 Zrotation Xrotation Yrotation
                  End Site
                  {
                    OFFSET -1.62519 -0.234802 1.16502
                  }
                }
              }
              JOINT rMid1
              {
                OFFSET -8.24714 1.18213 3.41376
                CHANNELS 3 Zrotation Xrotation Yrotation
                JOINT rMid2
                {
                  OFFSET -3.10165 -0.590103 1.0647
                  CHANNELS 3 Zrotation Xrotation Yrotation
                  End Site
                  {
                    OFFSET -2.48547 -0.328903 0.83742
                  }
                }
              }
              JOINT rRing1
              {
                OFFSET -8.82822 0.546677 1.51678
                CHANNELS 3 Zrotation Xrotation Yrotation
                JOINT rRing2
                {
                  OFFSET -2.60934 -0.819778 -0.0198488
                  CHANNELS 3 Zrotation Xrotation Yrotation
                  End Site
                  {
                    OFFSET -2.33842 -0.294052 0.168128
                  }
                }
              }
              JOINT rPinky1
              {
                OFFSET -8.27202 -0.0477905 -0.4584
                CHANNELS 3 Zrotation Xrotation Yrotation
                JOINT rPinky2
                {
                  OFFSET -1.82734 -0.647385 -0.700984
                  CHANNELS 3 Zrotation Xrotation Yrotation
                  End Site
                  {
                    OFFSET -1.69225 -0.51767 -0.607171
                  }
                }
              }
            }
          }
        }
      }
      JOINT lCollar
      {
        OFFSET 2.68224 19.2634 -4.8768
        CHANNELS 3 Zrotation Xrotation Yrotation
        JOINT lShldr
        {
          OFFSET 8.77824 -1.95073 1.46304
          CHANNELS 3 Zrotation Xrotation Yrotation
          JOINT lForeArm
          {
            OFFSET 28.1742 -1.7115 0.48768
            CHANNELS 3 Zrotation Xrotation Yrotation
            JOINT lHand
            {
              OFFSET 22.5879 0.773209 7.07136
              CHANNELS 3 Zrotation Xrotation Yrotation
              JOINT lThumb1
              {
                OFFSET 1.2192 -0.487915 3.41376
                CHANNELS 3 Zrotation Xrotation Yrotation
                JOINT lThumb2
                {
                  OFFSET 3.37035 -0.52449 3.41376
                  CHANNELS 3 Zrotation Xrotation Yrotation
                  End Site
                  {
                    OFFSET 1.78271 -1.18214 1.43049
                  }
                }
              }
              JOINT lIndex1
              {
                OFFSET 7.75947 0.938293 5.60832
                CHANNELS 3 Zrotation Xrotation Yrotation
                JOINT lIndex2
                {
                  OFFSET 2.54057 -0.884171 1.56538
                  CHANNELS 3 Zrotation Xrotation Yrotation
                  End Site
                  {
                    OFFSET 1.62519 -0.234802 1.16502
                  }
                }
              }
              JOINT lMid1
              {
                OFFSET 8.24714 1.18213 3.41376
                CHANNELS 3 Zrotation Xrotation Yrotation
                JOINT lMid2
                {
                  OFFSET 3.10165 -0.590103 1.0647
                  CHANNELS 3 Zrotation Xrotation Yrotation
                  End Site
                  {
                    OFFSET 2.48547 -0.328903 0.83742
                  }
                }
              }
              JOINT lRing1
              {
                OFFSET 8.82822 0.546677 1.51678
                CHANNELS 3 Zrotation Xrotation Yrotation
                JOINT lRing2
                {
                  OFFSET 2.60934 -0.819778 -0.0198488
                  CHANNELS 3 Zrotation Xrotation Yrotation
                  End Site
                  {
                    OFFSET 2.33842 -0.294052 0.168128
                  }
                }
              }
              JOINT lPinky1
              {
                OFFSET 8.27202 -0.0477905 -0.4584
                CHANNELS 3 Zrotation Xrotation Yrotation
                JOINT lPinky2
                {
                  OFFSET 1.82734 -0.647385 -0.700984
                  CHANNELS 3 Zrotation Xrotation Yrotation
                  End Site
                  {
                    OFFSET 1.69225 -0.51767 -0.607171
                  }
                }
              }
            }
          }
        }
      }
    }
  }
  JOINT rButtock
  {
    OFFSET -8.77824 4.35084 1.2192
    CHANNELS 3 Zrotation Xrotation Yrotation
    JOINT rThigh
    {
      OFFSET 0 -1.70687 -2.19456
      CHANNELS 3 Zrotation Xrotation Yrotation
      JOINT rShin
      {
        OFFSET 0 -36.8199 0.73152
        CHANNELS 3 Zrotation Xrotation Yrotation
        JOINT rFoot
        {
          OFFSET 0.73152 -45.1104 -5.12064
          CHANNELS 3 Zrotation Xrotation Yrotation
          End Site
          {
            OFFSET -1.1221 -3.69964 12.103
          }
        }
      }
    }
  }
  JOINT lButtock
  {
    OFFSET 8.77824 4.35084 1.2192
    CHANNELS 3 Zrotation Xrotation Yrotation
    JOINT lThigh
    {
      OFFSET 0 -1.70687 -2.19456
      CHANNELS 3 Zrotation Xrotation Yrotation
      JOINT lShin
      {
        OFFSET 0 -36.8199 0.73152
        CHANNELS 3 Zrotation Xrotation Yrotation
        JOINT lFoot
        {
          OFFSET -0.73152 -45.1104 -5.12064
          CHANNELS 3 Zrotation Xrotation Yrotation
          End Site
          {
            OFFSET 1.1221 -3.69964 12.103
          }
        }
      }
    }
  }
}
MOTION
Frames:	8
Frame Time:	0.03333
3.7691000000000003 67.9261 0.5122 0.453233 31.446116 6.377556 -10.613642 8.004575 1.051915 7.752866 -7.967551 -14.432502 -14.947199 32.236995 -70.248309 38.120206 2.97813 12.655339 0.003402 0.0 0.003025 -0.002311 -0.0 0.003255 -149.90488 22.422091 154.976246 -73.492205 29.505734 45.511011 163.396465 39.941901 -129.379792 -15.875121 44.044233 4.953426 83.254488 -50.258497 33.615054 -21.589654 -16.953255 -20.185137 -50.386422 40.825946 40.025134 122.811408 -62.998867 69.792653 -160.672977 -6.667882 143.245169 2.376819 2.428761 0.700798 0.003838 0.876167 0.275571 8.046123 22.050007 3.180722 -80.940468 -51.22809 -79.359272 -159.981613 55.892373 -148.402704 85.537149 68.181553 -88.6889 -89.846047 -15.873561 -89.094142 -171.222319 9.541131 -107.285514 -167.406656 -18.167537 -144.3698 -6.462795 -6.453034 0.634126 -12.723676 -24.893468 14.983849 50.386628 40.826002 -40.024953 169.701567 -19.020638 -112.148452 161.519073 -9.30418 -143.625569 167.449658 -17.357378 -143.828562 0.014806 -1.323418 0.414138 156.457372 -30.819731 -175.473988 144.108891 8.78187 140.874697 -46.458419 79.967641 10.078325 -179.998728 75.748438 -0.001313 165.843228 6.394189 -113.822564 -72.396147 -31.328557 49.593034 -41.630526 -66.085109 51.991251 -179.998658 75.750191 -0.001385 -143.052762 82.470018 -37.185902 0.765969 37.497759 35.408611 46.404715 -20.168736 11.329752
3.7799 67.9206 0.4961 0.37105 31.480642 6.32058 -8.151175 5.157273 -100.678209 3.936418 6.243952 86.344655 -0.655098 23.566748 24.213577 -11.019732 -24.620047 -86.875612 -0.002275 0.0 -0.001053 -0.001844 -0.0 0.002846 0.133352 -0.807205 -0.177953 -107.094074 -16.518147 -175.264674 -84.801113 -36.999602 -113.72005 39.161795 -60.940115 26.97814 -171.705741 -9.38859 89.948685 -159.099002 -0.089165 83.454927 -162.920441 -37.929412 122.627898 -164.596496 -26.290902 118.858078 -36.035392 51.723034 29.832935 -153.884272 19.994001 138.635929 -145.097626 -1.521643 -178.649072 12.092402 52.749563 -2.725593 31.480307 83.083872 6.681942 9.500351 24.93441 4.876956 153.579097 7.46363 -159.321547 -124.374948 -7.792392 -166.915019 -83.756692 -32.501058 -79.182143 147.474274 67.990922 -126.302682 78.030903 38.688503 -42.412676 162.83817 -39.257436 -81.756493 77.667036 43.028744 -64.538817 67.428513 51.976408 -46.872709 82.840327 61.111096 -74.532393 -2.579855 2.470735 -0.502894 0.060025 -3.508303 1.105449 156.179282 -42.79116 -177.047614 16.66365 -29.658704 15.920683 158.70983 54.141735 149.738512 0.001331 0.000762 0.000666 -39.072176 -63.761414 73.40318 84.679888 -18.212033 98.455303 -86.509981 16.490069 -171.285586 179.733783 75.749942 0.205187 -142.73419 82.343112 -36.926686 -7.795255 36.107267 -27.381954 -179.059073 -2.003327 -81.103199
3.7864 67.9169 0.4824 0.411684 31.438198 6.336549 -8.380615 4.40686 -117.545178 1.233922 7.025024 103.404583 -14.486623 37.503674 -99.978193 38.432617 20.873467 36.979799 -0.001348 -0.0 2.7e-05 -0.001348 -0.0 2.7e-05 4.22665 -44.173089 -8.531921 109.235668 53.357938 -68.229085 176.33082 30.097807 109.045322 168.849311 -19.463796 143.585198 -175.197927 -12.846103 89.80864 5.109109 -58.844795 8.566228 -22.045358 26.608799 15.679681 -147.50606 11.037047 107.518437 0.540533 -1.590046 -0.294877 3.161464 0.193276 -0.002082 -74.840533 72.96198 92.827597 -159.483005 -14.755895 178.222865 -125.80744 -27.877217 -123.551381 -136.869731 -12.869795 -134.159058 -2.459638 -18.216354 3.669322 -81.348317 30.976183 12.824231 6.062129 -9.305397 -37.894874 4.24886 21.713421 -1.256821 171.705248 -9.388779 -89.948799 121.938683 13.374231 -57.746705 166.823122 -43.973435 -122.061618 6.140102 32.346439 -0.998135 150.787126 19.326654 -137.027121 163.480102 -5.640026 -143.078728 75.405239 72.952826 -93.420143 -5.020678 29.771669 0.506088 158.295145 60.637802 150.819025 148.161693 11.206756 141.958061 -0.0 -0.00052 -0.000462 -36.748304 -65.307407 -180.0 -62.108126 -60.625297 52.587937 -27.567595 -83.558544 70.708982 179.981133 75.749586 0.012909 -148.329299 80.199375 -180.0 -26.71132 -33.466143 -163.668423 -149.241009 0.638084 -2.454548
3.7733999999999996 67.9155 0.47080000000000005 0.423013 31.414146 6.347105 -8.697502 7.199696 -50.615741 9.089483 0.154146 36.893791 -12.757438 39.578824 -115.925385 34.928778 29.219776 50.597501 0.002765 -0.0 -0.000733 -0.00306 -0.0 0.003703 0.058436 -0.352786 -0.078832 -108.535406 -0.628215 -177.010358 2.866476 4.294148 -72.69001 165.62016 -27.542795 141.902316 -178.928468 -16.453296 89.421858 -46.716764 -14.682648 4.752197 -160.409019 -33.696482 122.706135 3.432847 17.932919 -5.852821 -153.321938 13.629413 138.863114 -4.791998 20.746996 4.645484 -0.006132 3.471782 1.092959 -155.688228 -1.026092 171.977308 -152.343747 37.910394 -147.691967 -155.94568 36.62495 -146.0851 151.981508 14.727569 -157.381306 72.193215 26.634118 -22.771639 -17.065808 -27.864403 66.598435 -167.087269 -19.003493 -144.201989 -9.078437 -9.072162 0.684963 -21.099674 -47.741066 22.841541 166.822945 -43.973593 -122.061172 -106.715942 -70.64679 -50.126591 167.376625 -28.008269 -145.269076 37.140141 56.042667 -31.559543 145.119721 0.310042 179.225844 73.711498 -78.001921 95.208136 -1.137246 3.04035 -1.042201 128.085385 -30.121964 126.400929 179.999904 75.750616 -0.0 164.736395 7.938492 1.850921 22.43534 75.543609 73.75723 -150.39211 37.331736 76.477263 -0.001116 -0.000399 0.001435 3.612434 6.259534 126.538446 40.680048 -15.78611 161.222971 80.812518 -33.076542 142.969644
3.772 67.9166 0.4545 0.354997 31.377892 6.299296 -12.694935 6.720599 62.547789 -1.114403 -11.674427 -76.025167 -6.949823 42.629315 -150.395201 19.658295 42.741842 85.066637 0.001219 -0.0 -0.000172 0.001785 -0.0 -0.000547 -9.653072 34.835834 11.200462 177.876381 -65.36089 105.149653 128.792009 -82.546973 51.52719 168.097671 -21.35559 143.250816 13.164057 -13.1157 -0.520674 -148.118835 -63.283367 130.808406 -108.42641 34.160557 91.743166 -164.839815 -12.036061 116.213265 -0.220054 0.638411 0.122475 168.044381 -64.094472 133.244722 -145.119591 0.185193 -179.187005 -150.34845 -35.133091 -173.023165 -163.643741 74.5742 -150.514796 -161.23156 52.49082 -147.739217 155.613745 -4.236156 -161.991858 59.7125 15.13696 -1.148182 -165.663767 33.204364 131.972999 16.365525 49.54009 -6.222527 2.926113 2.862016 -0.520318 30.000415 22.844804 -28.013831 50.385355 40.827088 -40.024515 1.82666 12.356265 0.124542 160.825828 -7.141878 -143.31632 176.809903 -42.231844 -142.386524 145.099296 -1.523108 178.649836 145.636144 -49.237534 168.098973 141.162001 0.46961 138.192813 162.147203 55.900162 146.729762 179.986308 75.747663 0.009368 164.77641 7.921278 1.841189 -8.188542 70.34888 0.918753 144.210353 -15.573181 -15.119182 -0.000627 0.000226 0.000807 3.402681 6.972488 87.205779 37.430261 7.208419 -122.629521 -175.37529 -28.590801 -91.689003
3.7442999999999995 67.9204 0.4404 0.379239 31.311001 6.270285 -12.692121 6.805002 62.250162 -1.087128 -11.60463 -75.640322 5.189621 26.470623 56.463885 -28.068059 -11.495504 -120.534345 0.00111 -0.0 -0.001222 0.000555 -0.0 -0.000849 -155.614385 -4.236561 161.990478 -47.294125 -6.255015 12.145559 -87.95772 -36.039303 -110.7381 31.435209 -56.023524 20.171767 9.727284 -9.718096 -0.678847 22.443144 -52.214908 -24.144949 -7.260333 10.78096 4.546152 -178.83088 -34.018212 106.494623 -167.298619 -27.767549 145.259746 -5.172741 21.241563 4.801 -145.119318 0.310095 -179.22574 -149.044836 -40.110318 -171.58243 -152.694225 39.284897 -147.934623 -11.916711 -26.039962 -13.665071 6.250765 26.219343 -7.46735 101.612538 -13.925682 -147.982943 79.763756 -38.309741 118.329514 -47.342412 -62.281565 -35.52707 -0.567869 -0.561427 0.084792 -65.476392 -79.181237 1.353711 157.32826 -28.217229 -122.490746 133.260079 32.056357 -108.434211 160.740687 -6.876607 -143.277482 175.366683 -39.008411 -142.902111 0.001006 0.022593 -0.007329 -6.911208 29.712113 -4.677918 0.530555 -1.363946 0.490409 -8.343513 18.481116 -4.692928 -0.000381 -3.3e-05 0.00049 -34.749531 -63.217846 -37.84978 -52.161912 78.47391 -98.967724 35.605955 8.771409 167.296881 0.005196 -0.000606 0.002598 3.461363 7.000043 87.70421 49.988452 3.541999 76.101322 -50.82448 -10.508781 -125.838883
3.746 67.923 0.42300000000000004 0.266292 31.288383 6.217575 -10.609228 8.027724 1.055784 7.514464 -7.788624 -13.831053 -13.427943 28.447786 -46.456731 32.644025 -10.467216 -7.299523 0.003359 -0.0 -0.002482 -0.002351 0.0 -0.00225 -2.807021 14.086246 3.510837 -107.670178 -6.521591 170.660423 -0.1622 -11.794864 -73.918335 163.828102 -31.302298 140.881631 9.388864 -9.38161 -0.682913 -78.843295 30.026905 69.131939 -161.903788 -36.242374 122.688358 2.425367 19.938039 -5.116098 -10.976358 25.789873 7.639671 -163.641991 -6.192989 143.473015 -145.111533 -0.626994 -178.930856 10.278831 -0.031838 -9.001389 12.987653 44.344314 10.763138 -85.73584 -53.619485 -84.478934 -3.737828 -33.150894 6.412882 99.761527 -6.828482 155.021872 -87.882695 33.164452 113.901883 170.305346 44.587047 -143.713554 87.918115 38.514555 -49.436147 -129.313785 -52.941293 -56.534232 152.105054 -18.556839 -121.367248 62.062678 57.375194 -46.097362 -68.984377 -80.153855 -40.578689 2.380903 14.686572 -2.832668 4.4e-05 0.0637 -0.020976 156.582489 -32.213781 -175.636775 110.053917 -41.783069 108.128339 24.480435 -40.706488 26.536586 -0.000197 -4.1e-05 0.000254 -36.273852 -65.251629 180.0 -62.404842 -51.14812 149.063838 7.651707 -12.198052 -24.148468 179.98116 75.750607 0.012891 -151.292858 80.367242 150.948792 10.147425 -38.93618 144.042528 39.443104 25.477887 71.671992
3.7545 67.9304 0.4097 0.298484 31.322177 6.232706 -8.490114 4.500682 -117.730091 1.255492 6.702159 103.947372 1.468257 42.614166 167.493192 -10.555269 44.531925 136.84052 -0.00106 -0.0 0.002106 -0.001543 0.0 -0.001705 -0.272897 1.606896 0.360357 -107.784223 -18.215675 -177.816876 74.837602 28.093436 -87.187648 -165.045451 49.278183 139.115758 -81.447001 38.736687 44.84085 -161.364833 -37.469527 81.348872 -2.685303 4.227341 1.582011 -175.63145 -31.355428 107.360905 34.589243 -70.943526 9.315009 -18.904953 42.921741 15.11892 -145.122461 1.080245 -179.468586 11.93995 33.473571 -5.203358 -157.330783 57.246867 -150.509627 -115.447123 -41.001415 -113.06015 152.942793 10.523517 -158.536075 62.665587 6.320443 -14.858802 -179.546641 13.36599 140.273525 9.929573 36.748152 -2.768575 164.69847 -2.371934 -89.585256 140.742329 5.519728 -69.898978 100.824725 37.733923 -85.161805 166.445744 -14.37328 -115.628632 8.416553 20.880384 -5.645576 -3.287851 0.066529 0.005941 73.16249 -72.142918 90.197936 58.379266 -82.264702 84.286485 148.967122 25.013372 145.071603 147.91919 12.040514 141.799604 -179.99928 75.749853 -0.000743 163.795897 7.335491 66.2814 71.19895 30.78873 -130.956083 -36.953305 -68.39725 57.602283 0.0 0.000713 -0.001174 3.679484 6.27076 126.145809 39.252733 -28.433531 -10.594569 -124.45012 43.017714 7.919051
